<?xml version="1.0" encoding="UTF-8"?><svg xmlns="http://www.w3.org/2000/svg" xmlns:xlink="http://www.w3.org/1999/xlink" contentScriptType="text/ecmascript" width="112.5pt" zoomAndPan="magnify" contentStyleType="text/css" viewBox="0 0 112.5 74.999997" height="74.999997pt" preserveAspectRatio="xMidYMid meet" version="1.2"><defs><g/><clipPath xml:id="clip1" id="clip1"><path d="M 33 32 L 56 32 L 56 40.316406 L 33 40.316406 Z M 33 32 "/></clipPath><clipPath xml:id="clip2" id="clip2"><path d="M 58 32 L 80 32 L 80 40.316406 L 58 40.316406 Z M 58 32 "/></clipPath><clipPath xml:id="clip3" id="clip3"><path d="M 55 28.316406 L 59 28.316406 L 59 35 L 55 35 Z M 55 28.316406 "/></clipPath><clipPath xml:id="clip4" id="clip4"><path d="M 32.824219 32 L 35 32 L 35 36 L 32.824219 36 Z M 32.824219 32 "/></clipPath><clipPath xml:id="clip5" id="clip5"><path d="M 79 32 L 80.824219 32 L 80.824219 36 L 79 36 Z M 79 32 "/></clipPath></defs><g xml:id="surface1" id="surface1"><path style=" stroke:none;fill-rule:nonzero;fill:rgb(86.669922%,86.669922%,86.669922%);fill-opacity:1;" d="M 53.976562 36.445312 C 53.753906 36.394531 53.527344 36.390625 53.304688 36.433594 C 53.191406 36.460938 53.089844 36.515625 53.007812 36.59375 C 52.925781 36.667969 52.871094 36.753906 52.84375 36.859375 C 52.789062 37.074219 52.804688 37.285156 52.882812 37.492188 C 52.957031 37.703125 53.070312 37.894531 53.222656 38.058594 C 53.367188 38.222656 53.546875 38.332031 53.761719 38.386719 C 53.980469 38.425781 54.199219 38.425781 54.417969 38.386719 C 54.867188 38.3125 55.222656 38.09375 55.480469 37.730469 C 55.601562 37.558594 55.683594 37.371094 55.726562 37.167969 C 55.769531 36.96875 55.757812 36.773438 55.695312 36.582031 C 55.582031 36.195312 55.296875 35.847656 54.96875 35.582031 C 54.644531 35.3125 54.242188 35.125 53.84375 35.105469 C 53.445312 35.085938 53.027344 35.234375 52.640625 35.441406 C 52.441406 35.546875 52.25 35.65625 52.066406 35.78125 C 51.875 35.894531 51.691406 36.019531 51.515625 36.15625 C 51.15625 36.414062 50.820312 36.722656 50.460938 37.007812 C 50.09375 37.292969 49.714844 37.558594 49.316406 37.800781 C 48.921875 38.050781 48.511719 38.269531 48.078125 38.457031 C 47.644531 38.648438 47.191406 38.785156 46.71875 38.871094 C 46.253906 38.964844 45.785156 38.996094 45.308594 38.960938 C 44.835938 38.9375 44.371094 38.859375 43.917969 38.722656 C 43.476562 38.597656 43.042969 38.441406 42.621094 38.257812 C 43.0625 38.375 43.511719 38.484375 43.960938 38.5625 C 44.40625 38.648438 44.855469 38.6875 45.308594 38.683594 C 46.222656 38.675781 47.085938 38.476562 47.90625 38.089844 C 48.308594 37.898438 48.699219 37.679688 49.070312 37.433594 C 49.453125 37.199219 49.816406 36.941406 50.164062 36.660156 C 50.511719 36.382812 50.859375 36.078125 51.238281 35.808594 L 51.820312 35.414062 C 52.015625 35.292969 52.21875 35.175781 52.433594 35.066406 C 52.652344 34.953125 52.875 34.859375 53.109375 34.789062 C 53.355469 34.722656 53.609375 34.695312 53.867188 34.710938 C 54.125 34.730469 54.371094 34.796875 54.601562 34.90625 C 54.824219 35.011719 55.027344 35.144531 55.214844 35.304688 C 55.402344 35.464844 55.5625 35.640625 55.707031 35.839844 C 55.847656 36.042969 55.949219 36.265625 56.011719 36.503906 C 56.082031 36.746094 56.082031 36.992188 56.011719 37.238281 C 55.949219 37.472656 55.84375 37.6875 55.695312 37.878906 C 55.375 38.28125 54.957031 38.507812 54.4375 38.5625 C 54.195312 38.597656 53.957031 38.582031 53.722656 38.523438 C 53.480469 38.457031 53.28125 38.324219 53.128906 38.128906 C 52.976562 37.949219 52.863281 37.746094 52.792969 37.523438 C 52.714844 37.296875 52.710938 37.070312 52.78125 36.839844 C 52.816406 36.726562 52.882812 36.628906 52.976562 36.550781 C 53.066406 36.472656 53.171875 36.425781 53.292969 36.402344 C 53.523438 36.367188 53.753906 36.378906 53.976562 36.445312 Z M 53.976562 36.445312 "/><path style=" stroke:none;fill-rule:nonzero;fill:rgb(86.669922%,86.669922%,86.669922%);fill-opacity:1;" d="M 59.386719 36.640625 C 59.613281 36.578125 59.847656 36.566406 60.082031 36.601562 C 60.199219 36.625 60.308594 36.671875 60.398438 36.75 C 60.488281 36.832031 60.554688 36.925781 60.59375 37.039062 C 60.660156 37.269531 60.652344 37.496094 60.570312 37.722656 C 60.507812 37.945312 60.398438 38.148438 60.246094 38.328125 C 60.085938 38.519531 59.886719 38.652344 59.640625 38.722656 C 59.40625 38.78125 59.167969 38.792969 58.925781 38.761719 C 58.410156 38.707031 57.992188 38.480469 57.679688 38.078125 C 57.523438 37.886719 57.414062 37.671875 57.351562 37.433594 C 57.289062 37.191406 57.289062 36.945312 57.351562 36.703125 C 57.414062 36.460938 57.519531 36.238281 57.667969 36.039062 C 57.804688 35.839844 57.964844 35.660156 58.148438 35.503906 C 58.332031 35.339844 58.539062 35.207031 58.761719 35.105469 C 58.996094 34.996094 59.242188 34.929688 59.5 34.90625 C 59.753906 34.894531 60.007812 34.921875 60.253906 34.988281 C 60.492188 35.058594 60.722656 35.148438 60.941406 35.265625 L 61.542969 35.609375 L 62.125 36.007812 C 62.503906 36.273438 62.851562 36.582031 63.199219 36.859375 C 63.546875 37.136719 63.914062 37.394531 64.292969 37.632812 C 64.667969 37.878906 65.0625 38.09375 65.46875 38.285156 C 66.285156 38.675781 67.144531 38.875 68.054688 38.882812 C 68.507812 38.886719 68.957031 38.847656 69.402344 38.761719 C 69.855469 38.683594 70.304688 38.5625 70.753906 38.457031 C 70.328125 38.640625 69.890625 38.796875 69.445312 38.921875 C 68.996094 39.054688 68.535156 39.132812 68.066406 39.160156 C 67.585938 39.195312 67.113281 39.164062 66.644531 39.070312 C 66.175781 38.984375 65.726562 38.847656 65.292969 38.652344 C 64.863281 38.46875 64.453125 38.25 64.058594 38 C 63.660156 37.757812 63.277344 37.492188 62.914062 37.207031 C 62.542969 36.917969 62.21875 36.613281 61.859375 36.355469 C 61.675781 36.214844 61.492188 36.097656 61.308594 35.976562 L 60.726562 35.632812 C 60.347656 35.433594 59.9375 35.285156 59.527344 35.304688 C 59.097656 35.34375 58.71875 35.5 58.394531 35.78125 C 58.054688 36.046875 57.8125 36.378906 57.667969 36.78125 C 57.617188 36.972656 57.609375 37.167969 57.648438 37.363281 C 57.6875 37.570312 57.769531 37.757812 57.894531 37.929688 C 58.152344 38.292969 58.507812 38.507812 58.957031 38.582031 C 59.175781 38.625 59.394531 38.625 59.609375 38.582031 C 59.824219 38.523438 60.003906 38.410156 60.152344 38.246094 C 60.300781 38.082031 60.410156 37.898438 60.480469 37.691406 C 60.558594 37.484375 60.578125 37.273438 60.53125 37.058594 C 60.5 36.953125 60.441406 36.863281 60.355469 36.789062 C 60.277344 36.710938 60.183594 36.65625 60.070312 36.632812 C 59.84375 36.589844 59.613281 36.59375 59.386719 36.640625 Z M 59.386719 36.640625 "/><g clip-rule="nonzero" clip-path="url(#clip1)"><path style=" stroke:none;fill-rule:nonzero;fill:rgb(86.669922%,86.669922%,86.669922%);fill-opacity:1;" d="M 33.675781 36.007812 C 33.855469 36.402344 34.074219 36.773438 34.332031 37.128906 C 34.582031 37.480469 34.867188 37.8125 35.179688 38.117188 C 35.496094 38.414062 35.839844 38.679688 36.210938 38.910156 C 36.398438 39.023438 36.585938 39.125 36.785156 39.21875 C 36.988281 39.296875 37.183594 39.398438 37.386719 39.457031 C 38.21875 39.742188 39.074219 39.882812 39.953125 39.882812 C 40.378906 39.875 40.800781 39.8125 41.210938 39.703125 C 41.613281 39.589844 41.96875 39.398438 42.285156 39.128906 C 42.433594 38.996094 42.566406 38.851562 42.683594 38.691406 C 42.796875 38.527344 42.890625 38.351562 42.96875 38.167969 C 43.121094 37.792969 43.207031 37.402344 43.222656 37 C 43.269531 36.171875 43.070312 35.402344 42.632812 34.691406 C 42.414062 34.363281 42.140625 34.089844 41.804688 33.878906 C 41.636719 33.785156 41.457031 33.714844 41.273438 33.667969 C 41.082031 33.621094 40.886719 33.597656 40.6875 33.601562 C 40.28125 33.59375 39.882812 33.664062 39.503906 33.808594 C 39.125 33.9375 38.796875 34.148438 38.523438 34.433594 C 38.398438 34.558594 38.308594 34.707031 38.246094 34.867188 C 38.191406 35.027344 38.175781 35.1875 38.203125 35.355469 C 38.257812 35.691406 38.472656 36.027344 38.738281 36.335938 C 39.011719 36.640625 39.324219 36.914062 39.667969 37.148438 C 40.011719 37.386719 40.378906 37.589844 40.769531 37.75 L 41.058594 37.859375 L 41.351562 37.949219 L 41.660156 38.019531 L 41.8125 38.050781 L 41.976562 38.070312 C 42.398438 38.125 42.820312 38.132812 43.246094 38.089844 C 44.105469 37.988281 44.929688 37.757812 45.71875 37.40625 C 46.109375 37.234375 46.480469 37.023438 46.824219 36.769531 C 47.160156 36.523438 47.476562 36.214844 47.8125 35.929688 C 48.503906 35.328125 49.277344 34.855469 50.132812 34.511719 C 50.984375 34.183594 51.863281 33.976562 52.773438 33.898438 L 53.445312 33.847656 L 54.121094 33.847656 L 54.785156 33.867188 L 55.460938 33.925781 L 54.785156 33.925781 L 54.121094 33.957031 L 53.785156 33.976562 L 53.457031 34.007812 C 53.230469 34.027344 53.015625 34.066406 52.792969 34.09375 C 52.355469 34.164062 51.925781 34.261719 51.503906 34.382812 C 51.082031 34.5 50.667969 34.648438 50.265625 34.828125 C 49.464844 35.1875 48.75 35.664062 48.121094 36.265625 C 47.804688 36.5625 47.488281 36.878906 47.128906 37.167969 C 46.761719 37.453125 46.367188 37.695312 45.945312 37.890625 C 45.53125 38.089844 45.105469 38.257812 44.664062 38.394531 C 44.21875 38.527344 43.765625 38.621094 43.304688 38.683594 C 42.835938 38.742188 42.367188 38.746094 41.894531 38.691406 L 41.722656 38.671875 L 41.546875 38.644531 C 41.429688 38.621094 41.316406 38.597656 41.199219 38.5625 L 40.851562 38.476562 L 40.515625 38.347656 C 40.078125 38.171875 39.664062 37.957031 39.277344 37.691406 C 38.890625 37.425781 38.539062 37.117188 38.226562 36.769531 C 38.058594 36.59375 37.914062 36.398438 37.796875 36.1875 C 37.667969 35.960938 37.582031 35.726562 37.539062 35.472656 C 37.492188 35.199219 37.515625 34.933594 37.601562 34.667969 C 37.695312 34.421875 37.832031 34.203125 38.011719 34.007812 C 38.1875 33.824219 38.382812 33.664062 38.605469 33.53125 C 38.808594 33.402344 39.027344 33.296875 39.257812 33.214844 C 39.722656 33.039062 40.203125 32.957031 40.699219 32.964844 C 40.953125 32.972656 41.199219 33.007812 41.445312 33.066406 C 41.691406 33.125 41.925781 33.222656 42.140625 33.351562 C 42.566406 33.609375 42.910156 33.945312 43.171875 34.363281 C 43.425781 34.765625 43.601562 35.199219 43.703125 35.660156 C 43.8125 36.113281 43.855469 36.574219 43.828125 37.039062 C 43.796875 37.507812 43.683594 37.957031 43.488281 38.386719 C 43.398438 38.605469 43.277344 38.808594 43.132812 39 C 42.988281 39.195312 42.820312 39.371094 42.632812 39.523438 C 42.25 39.828125 41.820312 40.039062 41.34375 40.160156 C 40.886719 40.277344 40.425781 40.328125 39.953125 40.308594 C 39.027344 40.28125 38.132812 40.101562 37.273438 39.761719 C 37.058594 39.683594 36.855469 39.574219 36.652344 39.476562 C 36.445312 39.371094 36.253906 39.253906 36.070312 39.117188 C 35.691406 38.867188 35.351562 38.578125 35.046875 38.246094 C 34.4375 37.585938 33.980469 36.839844 33.675781 36.007812 Z M 33.675781 36.007812 "/></g><g clip-rule="nonzero" clip-path="url(#clip2)"><path style=" stroke:none;fill-rule:nonzero;fill:rgb(86.669922%,86.669922%,86.669922%);fill-opacity:1;" d="M 79.984375 36.007812 C 79.671875 36.839844 79.210938 37.585938 78.605469 38.246094 C 78.300781 38.578125 77.960938 38.871094 77.582031 39.117188 C 77.398438 39.25 77.210938 39.371094 77.007812 39.476562 C 76.796875 39.574219 76.601562 39.683594 76.386719 39.761719 C 75.523438 40.101562 74.628906 40.28125 73.699219 40.308594 C 73.226562 40.328125 72.761719 40.277344 72.308594 40.160156 C 71.570312 39.980469 70.972656 39.59375 70.519531 39 C 70.378906 38.808594 70.257812 38.601562 70.160156 38.386719 C 69.96875 37.957031 69.859375 37.507812 69.832031 37.039062 C 69.804688 36.574219 69.839844 36.113281 69.945312 35.660156 C 70.046875 35.199219 70.226562 34.765625 70.476562 34.363281 C 70.738281 33.941406 71.082031 33.597656 71.511719 33.332031 C 71.730469 33.203125 71.964844 33.105469 72.214844 33.042969 C 72.457031 32.988281 72.703125 32.953125 72.953125 32.945312 C 73.449219 32.9375 73.929688 33.019531 74.394531 33.195312 C 74.625 33.277344 74.847656 33.382812 75.058594 33.511719 C 75.273438 33.644531 75.46875 33.804688 75.640625 33.984375 C 75.820312 34.183594 75.957031 34.402344 76.046875 34.648438 C 76.140625 34.910156 76.164062 35.179688 76.121094 35.453125 C 76.074219 35.707031 75.984375 35.945312 75.855469 36.167969 C 75.734375 36.375 75.59375 36.570312 75.433594 36.75 C 75.117188 37.097656 74.761719 37.40625 74.371094 37.671875 C 73.988281 37.9375 73.574219 38.15625 73.136719 38.328125 L 72.796875 38.457031 L 72.460938 38.542969 C 72.339844 38.585938 72.226562 38.59375 72.113281 38.625 L 71.929688 38.652344 L 71.753906 38.671875 C 71.285156 38.722656 70.8125 38.722656 70.34375 38.664062 C 69.882812 38.601562 69.429688 38.507812 68.984375 38.375 C 68.546875 38.238281 68.121094 38.070312 67.707031 37.871094 C 67.285156 37.671875 66.886719 37.429688 66.519531 37.148438 C 66.164062 36.859375 65.847656 36.542969 65.53125 36.246094 C 64.898438 35.644531 64.183594 35.167969 63.382812 34.808594 C 62.984375 34.628906 62.578125 34.480469 62.15625 34.363281 C 61.730469 34.242188 61.296875 34.144531 60.859375 34.074219 L 60.203125 33.984375 L 59.867188 33.957031 L 59.527344 33.9375 C 59.316406 33.917969 59.089844 33.917969 58.863281 33.90625 L 58.191406 33.90625 L 58.863281 33.847656 L 59.539062 33.828125 L 60.214844 33.828125 L 60.890625 33.878906 C 61.796875 33.964844 62.671875 34.175781 63.515625 34.511719 C 64.375 34.855469 65.148438 35.328125 65.835938 35.929688 C 66.171875 36.214844 66.492188 36.523438 66.828125 36.769531 C 67.171875 37.023438 67.539062 37.234375 67.933594 37.40625 C 68.722656 37.757812 69.550781 37.988281 70.417969 38.089844 C 70.839844 38.132812 71.261719 38.125 71.683594 38.070312 L 71.835938 38.050781 L 71.992188 38.019531 L 72.296875 37.949219 L 72.59375 37.859375 L 72.890625 37.75 C 73.277344 37.589844 73.640625 37.386719 73.984375 37.148438 C 74.332031 36.914062 74.644531 36.640625 74.925781 36.335938 C 75.191406 36.027344 75.394531 35.691406 75.445312 35.355469 C 75.472656 35.1875 75.460938 35.027344 75.40625 34.867188 C 75.347656 34.703125 75.253906 34.558594 75.128906 34.433594 C 74.855469 34.144531 74.527344 33.9375 74.148438 33.808594 C 73.765625 33.664062 73.371094 33.59375 72.960938 33.601562 C 72.765625 33.597656 72.570312 33.621094 72.378906 33.667969 C 72.195312 33.71875 72.015625 33.789062 71.847656 33.878906 C 71.511719 34.089844 71.238281 34.359375 71.03125 34.691406 C 70.582031 35.398438 70.378906 36.167969 70.425781 37 C 70.445312 37.402344 70.527344 37.792969 70.683594 38.167969 C 70.757812 38.351562 70.855469 38.527344 70.96875 38.691406 C 71.085938 38.851562 71.21875 38.996094 71.367188 39.128906 C 71.679688 39.398438 72.039062 39.589844 72.441406 39.703125 C 72.851562 39.8125 73.269531 39.871094 73.699219 39.882812 C 74.578125 39.886719 75.433594 39.742188 76.261719 39.457031 C 76.679688 39.320312 77.070312 39.136719 77.4375 38.910156 C 77.808594 38.679688 78.15625 38.414062 78.472656 38.117188 C 79.101562 37.5 79.605469 36.796875 79.984375 36.007812 Z M 79.984375 36.007812 "/></g><g clip-rule="nonzero" clip-path="url(#clip3)"><path style=" stroke:none;fill-rule:nonzero;fill:rgb(86.669922%,86.669922%,86.669922%);fill-opacity:1;" d="M 56.808594 34.34375 C 56.757812 34.339844 56.714844 34.324219 56.675781 34.292969 C 56.457031 34.109375 56.257812 33.90625 56.082031 33.679688 C 55.90625 33.457031 55.757812 33.214844 55.636719 32.960938 C 55.515625 32.703125 55.421875 32.4375 55.359375 32.160156 C 55.296875 31.886719 55.265625 31.609375 55.265625 31.324219 C 55.265625 31.042969 55.296875 30.765625 55.359375 30.488281 C 55.421875 30.214844 55.515625 29.949219 55.636719 29.691406 C 55.757812 29.433594 55.90625 29.195312 56.082031 28.96875 C 56.257812 28.746094 56.457031 28.539062 56.675781 28.359375 C 56.761719 28.292969 56.847656 28.292969 56.933594 28.359375 C 57.15625 28.539062 57.355469 28.742188 57.53125 28.96875 C 57.710938 29.191406 57.859375 29.433594 57.980469 29.6875 C 58.105469 29.945312 58.199219 30.210938 58.261719 30.488281 C 58.324219 30.765625 58.355469 31.042969 58.355469 31.324219 C 58.355469 31.609375 58.324219 31.886719 58.261719 32.164062 C 58.199219 32.4375 58.105469 32.707031 57.980469 32.960938 C 57.859375 33.21875 57.710938 33.457031 57.53125 33.683594 C 57.355469 33.90625 57.15625 34.109375 56.933594 34.292969 C 56.898438 34.324219 56.859375 34.339844 56.808594 34.34375 Z M 56.808594 28.765625 C 56.628906 28.929688 56.464844 29.109375 56.320312 29.304688 C 56.175781 29.5 56.054688 29.710938 55.953125 29.929688 C 55.855469 30.152344 55.78125 30.378906 55.730469 30.613281 C 55.679688 30.851562 55.652344 31.089844 55.652344 31.332031 C 55.652344 31.570312 55.679688 31.808594 55.730469 32.046875 C 55.78125 32.28125 55.855469 32.511719 55.953125 32.730469 C 56.054688 32.953125 56.175781 33.160156 56.320312 33.355469 C 56.464844 33.554688 56.628906 33.734375 56.808594 33.898438 C 56.992188 33.734375 57.15625 33.554688 57.300781 33.355469 C 57.445312 33.160156 57.566406 32.953125 57.664062 32.730469 C 57.765625 32.511719 57.839844 32.28125 57.890625 32.046875 C 57.941406 31.808594 57.964844 31.570312 57.964844 31.332031 C 57.964844 31.089844 57.941406 30.851562 57.890625 30.613281 C 57.839844 30.378906 57.765625 30.152344 57.664062 29.929688 C 57.566406 29.710938 57.445312 29.5 57.300781 29.304688 C 57.15625 29.109375 56.992188 28.929688 56.808594 28.765625 Z M 56.808594 28.765625 "/></g><path style=" stroke:none;fill-rule:nonzero;fill:rgb(86.669922%,86.669922%,86.669922%);fill-opacity:1;" d="M 58.976562 33.371094 C 58.878906 33.371094 58.8125 33.324219 58.78125 33.234375 C 58.722656 33.050781 58.683594 32.863281 58.664062 32.671875 C 58.648438 32.480469 58.652344 32.289062 58.675781 32.101562 C 58.699219 31.910156 58.746094 31.722656 58.8125 31.542969 C 58.878906 31.363281 58.960938 31.191406 59.066406 31.027344 C 59.171875 30.863281 59.292969 30.714844 59.429688 30.578125 C 59.570312 30.441406 59.71875 30.320312 59.886719 30.214844 C 60.050781 30.105469 60.226562 30.019531 60.410156 29.953125 C 60.59375 29.882812 60.785156 29.832031 60.980469 29.804688 C 61.09375 29.78125 61.164062 29.824219 61.195312 29.933594 C 61.453125 30.710938 61.359375 31.449219 60.917969 32.144531 C 60.476562 32.84375 59.835938 33.25 58.996094 33.363281 Z M 60.867188 30.210938 C 60.5625 30.277344 60.28125 30.398438 60.027344 30.574219 C 59.773438 30.75 59.5625 30.96875 59.398438 31.226562 C 59.230469 31.484375 59.125 31.761719 59.074219 32.0625 C 59.023438 32.363281 59.035156 32.660156 59.109375 32.957031 C 59.417969 32.890625 59.695312 32.769531 59.953125 32.59375 C 60.207031 32.417969 60.417969 32.199219 60.585938 31.941406 C 60.75 31.683594 60.859375 31.402344 60.90625 31.105469 C 60.957031 30.804688 60.941406 30.507812 60.867188 30.210938 Z M 60.867188 30.210938 "/><path style=" stroke:none;fill-rule:nonzero;fill:rgb(86.669922%,86.669922%,86.669922%);fill-opacity:1;" d="M 54.671875 33.371094 L 54.644531 33.371094 C 53.804688 33.257812 53.167969 32.851562 52.730469 32.152344 C 52.28125 31.460938 52.1875 30.722656 52.445312 29.941406 C 52.480469 29.847656 52.554688 29.804688 52.660156 29.8125 C 52.855469 29.839844 53.046875 29.890625 53.234375 29.957031 C 53.417969 30.023438 53.59375 30.113281 53.761719 30.21875 C 53.925781 30.320312 54.078125 30.445312 54.21875 30.582031 C 54.355469 30.71875 54.476562 30.867188 54.582031 31.03125 C 54.6875 31.195312 54.773438 31.367188 54.839844 31.550781 C 54.902344 31.730469 54.949219 31.917969 54.972656 32.109375 C 54.996094 32.300781 55 32.488281 54.980469 32.679688 C 54.960938 32.875 54.917969 33.058594 54.859375 33.242188 C 54.828125 33.328125 54.765625 33.371094 54.671875 33.371094 Z M 52.773438 30.210938 C 52.621094 30.828125 52.71875 31.40625 53.058594 31.945312 C 53.402344 32.480469 53.894531 32.816406 54.53125 32.957031 C 54.691406 32.339844 54.59375 31.765625 54.242188 31.230469 C 53.902344 30.691406 53.410156 30.347656 52.773438 30.210938 Z M 52.773438 30.210938 "/><g clip-rule="nonzero" clip-path="url(#clip4)"><path style=" stroke:none;fill-rule:nonzero;fill:rgb(86.669922%,86.669922%,86.669922%);fill-opacity:1;" d="M 33.667969 35.460938 C 33.640625 35.464844 33.621094 35.453125 33.605469 35.433594 L 32.859375 34.71875 C 32.835938 34.691406 32.828125 34.664062 32.839844 34.628906 L 33.574219 32.757812 C 33.605469 32.6875 33.726562 32.6875 33.746094 32.757812 L 34.492188 34.628906 C 34.503906 34.664062 34.496094 34.691406 34.472656 34.71875 L 33.726562 35.433594 C 33.710938 35.453125 33.691406 35.464844 33.667969 35.460938 Z M 33.03125 34.640625 L 33.667969 35.246094 L 34.300781 34.640625 L 33.667969 33.042969 Z M 33.03125 34.640625 "/></g><g clip-rule="nonzero" clip-path="url(#clip5)"><path style=" stroke:none;fill-rule:nonzero;fill:rgb(86.669922%,86.669922%,86.669922%);fill-opacity:1;" d="M 79.984375 35.5625 C 79.957031 35.5625 79.933594 35.550781 79.914062 35.53125 L 79.175781 34.820312 C 79.148438 34.789062 79.140625 34.757812 79.15625 34.71875 L 79.890625 32.855469 C 79.914062 32.824219 79.941406 32.808594 79.980469 32.808594 C 80.015625 32.808594 80.046875 32.824219 80.066406 32.855469 L 80.800781 34.71875 C 80.824219 34.757812 80.816406 34.789062 80.78125 34.820312 L 80.046875 35.53125 C 80.03125 35.550781 80.007812 35.558594 79.984375 35.5625 Z M 79.351562 34.730469 L 79.984375 35.34375 L 80.609375 34.730469 L 79.984375 33.132812 Z M 79.351562 34.730469 "/></g><g style="fill:rgb(97.648621%,87.449646%,86.268616%);fill-opacity:1;"><g transform="translate(35.782991, 47.884826)"><path style="stroke:none;" d="M 0.335938 -4.640625 C 0.257812 -4.640625 0.191406 -4.574219 0.191406 -4.496094 C 0.191406 -4.421875 0.257812 -4.355469 0.335938 -4.355469 L 0.804688 -4.355469 L 0.804688 -0.28125 L 0.359375 -0.28125 C 0.28125 -0.28125 0.21875 -0.21875 0.21875 -0.140625 C 0.21875 -0.0625 0.28125 0 0.359375 0 L 2.511719 0 C 2.589844 0 2.652344 -0.0625 2.652344 -0.140625 C 2.652344 -0.21875 2.589844 -0.28125 2.511719 -0.28125 L 2.035156 -0.28125 L 2.035156 -1.675781 L 2.960938 -1.675781 L 2.960938 -1.234375 C 2.960938 -1.15625 3.027344 -1.09375 3.101562 -1.09375 C 3.179688 -1.09375 3.246094 -1.15625 3.246094 -1.234375 L 3.246094 -2.414062 C 3.246094 -2.492188 3.179688 -2.558594 3.101562 -2.558594 C 3.027344 -2.558594 2.960938 -2.492188 2.960938 -2.414062 L 2.960938 -1.960938 L 2.035156 -1.960938 L 2.035156 -4.355469 L 4.023438 -4.355469 L 4.023438 -3.914062 C 4.023438 -3.835938 4.085938 -3.769531 4.164062 -3.769531 C 4.242188 -3.769531 4.304688 -3.835938 4.304688 -3.914062 L 4.304688 -4.496094 C 4.304688 -4.574219 4.242188 -4.640625 4.164062 -4.640625 Z M 1.753906 -4.355469 L 1.753906 -1.960938 L 1.085938 -1.960938 L 1.085938 -4.355469 Z M 1.753906 -1.675781 L 1.753906 -0.28125 L 1.085938 -0.28125 L 1.085938 -1.675781 Z M 1.753906 -1.675781 "/></g></g><g style="fill:rgb(97.648621%,87.449646%,86.268616%);fill-opacity:1;"><g transform="translate(41.049411, 47.884826)"><path style="stroke:none;" d="M 3.664062 -0.28125 L 2.035156 -0.28125 L 2.035156 -4.34375 L 2.5 -4.34375 C 2.578125 -4.34375 2.640625 -4.40625 2.640625 -4.484375 C 2.640625 -4.5625 2.578125 -4.625 2.5 -4.625 L 0.335938 -4.625 C 0.257812 -4.625 0.191406 -4.5625 0.191406 -4.484375 C 0.191406 -4.40625 0.257812 -4.34375 0.335938 -4.34375 L 0.824219 -4.34375 L 0.824219 -0.28125 L 0.335938 -0.28125 C 0.257812 -0.28125 0.191406 -0.21875 0.191406 -0.140625 C 0.191406 -0.0625 0.257812 0 0.335938 0 L 3.804688 0 C 3.878906 0 3.945312 -0.0625 3.945312 -0.140625 L 3.945312 -0.746094 C 3.945312 -0.824219 3.878906 -0.886719 3.804688 -0.886719 C 3.726562 -0.886719 3.664062 -0.824219 3.664062 -0.746094 Z M 1.753906 -0.28125 L 1.105469 -0.28125 L 1.105469 -4.34375 L 1.753906 -4.34375 Z M 1.753906 -0.28125 "/></g></g><g style="fill:rgb(97.648621%,87.449646%,86.268616%);fill-opacity:1;"><g transform="translate(45.821338, 47.884826)"><path style="stroke:none;" d="M 5.042969 -3.238281 C 4.929688 -3.519531 4.753906 -3.777344 4.53125 -3.996094 C 4.3125 -4.222656 4.054688 -4.394531 3.769531 -4.511719 C 3.476562 -4.640625 3.160156 -4.703125 2.839844 -4.703125 C 2.511719 -4.703125 2.199219 -4.640625 1.902344 -4.511719 C 1.617188 -4.394531 1.363281 -4.222656 1.136719 -3.996094 C 0.917969 -3.777344 0.746094 -3.519531 0.625 -3.238281 C 0.5 -2.941406 0.4375 -2.628906 0.4375 -2.300781 C 0.4375 -1.980469 0.5 -1.664062 0.625 -1.367188 C 0.746094 -1.085938 0.917969 -0.828125 1.136719 -0.605469 C 1.363281 -0.386719 1.617188 -0.210938 1.902344 -0.0898438 C 2.199219 0.03125 2.511719 0.0976562 2.832031 0.0976562 C 3.160156 0.0976562 3.476562 0.03125 3.769531 -0.0898438 C 4.054688 -0.210938 4.3125 -0.386719 4.53125 -0.605469 C 4.753906 -0.828125 4.929688 -1.085938 5.042969 -1.367188 C 5.171875 -1.664062 5.238281 -1.980469 5.238281 -2.300781 C 5.238281 -2.628906 5.171875 -2.941406 5.042969 -3.238281 Z M 1.816406 -3.390625 C 1.816406 -3.957031 2.273438 -4.421875 2.832031 -4.421875 C 3.179688 -4.421875 3.515625 -4.335938 3.816406 -4.183594 L 3.816406 -1.1875 C 3.816406 -0.917969 3.707031 -0.660156 3.519531 -0.476562 C 3.328125 -0.289062 3.078125 -0.1875 2.808594 -0.1875 C 2.453125 -0.191406 2.121094 -0.28125 1.816406 -0.441406 Z M 1.535156 -0.628906 L 1.335938 -0.804688 C 0.9375 -1.207031 0.71875 -1.734375 0.71875 -2.300781 C 0.71875 -2.867188 0.9375 -3.398438 1.335938 -3.796875 C 1.464844 -3.925781 1.605469 -4.035156 1.761719 -4.125 C 1.617188 -3.917969 1.535156 -3.664062 1.535156 -3.390625 Z M 4.097656 -4.003906 C 4.175781 -3.9375 4.261719 -3.875 4.332031 -3.796875 C 4.730469 -3.398438 4.953125 -2.867188 4.953125 -2.300781 C 4.953125 -1.734375 4.730469 -1.207031 4.332031 -0.804688 C 4.195312 -0.667969 4.035156 -0.546875 3.867188 -0.457031 C 4.015625 -0.667969 4.097656 -0.917969 4.097656 -1.1875 Z M 4.097656 -4.003906 "/></g></g><g style="fill:rgb(97.648621%,87.449646%,86.268616%);fill-opacity:1;"><g transform="translate(52.038198, 47.884826)"><path style="stroke:none;" d="M 6.855469 -4.632812 C 6.773438 -4.632812 6.714844 -4.566406 6.714844 -4.492188 C 6.714844 -4.414062 6.773438 -4.351562 6.855469 -4.351562 L 7.292969 -4.351562 L 6.097656 -1.5625 L 4.894531 -4.351562 L 5.378906 -4.351562 C 5.453125 -4.351562 5.519531 -4.414062 5.519531 -4.492188 C 5.519531 -4.566406 5.453125 -4.632812 5.378906 -4.632812 L 3.109375 -4.632812 C 3.027344 -4.632812 2.96875 -4.566406 2.96875 -4.492188 C 2.96875 -4.414062 3.027344 -4.351562 3.109375 -4.351562 L 3.558594 -4.351562 L 4.035156 -3.246094 L 3.308594 -1.5625 L 2.042969 -4.503906 C 2.011719 -4.585938 1.953125 -4.632812 1.863281 -4.632812 L 0.207031 -4.632812 C 0.121094 -4.632812 0.0625 -4.566406 0.0625 -4.492188 C 0.0625 -4.414062 0.121094 -4.351562 0.207031 -4.351562 L 0.769531 -4.351562 L 2.640625 0.0078125 C 2.667969 0.0585938 2.71875 0.0898438 2.777344 0.0898438 L 2.8125 0.0898438 C 2.867188 0.0898438 2.921875 0.0585938 2.941406 0.0078125 L 4.1875 -2.886719 L 5.429688 0.0078125 C 5.453125 0.0585938 5.507812 0.0898438 5.5625 0.0898438 L 5.601562 0.0898438 C 5.652344 0.0898438 5.710938 0.0585938 5.730469 0.0078125 L 7.605469 -4.351562 L 8.160156 -4.351562 C 8.238281 -4.351562 8.300781 -4.414062 8.300781 -4.492188 C 8.300781 -4.566406 8.238281 -4.632812 8.160156 -4.632812 Z M 3.15625 -1.207031 L 2.792969 -0.367188 L 1.078125 -4.351562 L 1.800781 -4.351562 L 3.136719 -1.238281 Z M 5.941406 -1.207031 L 5.582031 -0.367188 L 3.867188 -4.351562 L 4.585938 -4.351562 L 5.925781 -1.238281 Z M 5.941406 -1.207031 "/></g></g><g style="fill:rgb(97.648621%,87.449646%,86.268616%);fill-opacity:1;"><g transform="translate(60.945844, 47.884826)"><path style="stroke:none;" d="M 4.304688 -4.496094 C 4.304688 -4.574219 4.242188 -4.640625 4.164062 -4.640625 L 0.335938 -4.640625 C 0.257812 -4.640625 0.191406 -4.574219 0.191406 -4.496094 C 0.191406 -4.421875 0.257812 -4.355469 0.335938 -4.355469 L 0.804688 -4.355469 L 0.804688 -0.28125 L 0.335938 -0.28125 C 0.257812 -0.28125 0.191406 -0.21875 0.191406 -0.140625 C 0.191406 -0.0625 0.257812 0 0.335938 0 L 4.164062 0 C 4.242188 0 4.304688 -0.0625 4.304688 -0.140625 L 4.304688 -0.726562 C 4.304688 -0.804688 4.242188 -0.867188 4.164062 -0.867188 C 4.085938 -0.867188 4.023438 -0.804688 4.023438 -0.726562 L 4.023438 -0.28125 L 2.035156 -0.28125 L 2.035156 -1.675781 L 2.960938 -1.675781 L 2.960938 -1.234375 C 2.960938 -1.15625 3.027344 -1.09375 3.101562 -1.09375 C 3.179688 -1.09375 3.246094 -1.15625 3.246094 -1.234375 L 3.246094 -2.414062 C 3.246094 -2.492188 3.179688 -2.558594 3.101562 -2.558594 C 3.027344 -2.558594 2.960938 -2.492188 2.960938 -2.414062 L 2.960938 -1.960938 L 2.035156 -1.960938 L 2.035156 -4.355469 L 4.023438 -4.355469 L 4.023438 -3.914062 C 4.023438 -3.835938 4.085938 -3.769531 4.164062 -3.769531 C 4.242188 -3.769531 4.304688 -3.835938 4.304688 -3.914062 Z M 1.753906 -4.355469 L 1.753906 -1.960938 L 1.085938 -1.960938 L 1.085938 -4.355469 Z M 1.753906 -1.675781 L 1.753906 -0.28125 L 1.085938 -0.28125 L 1.085938 -1.675781 Z M 1.753906 -1.675781 "/></g></g><g style="fill:rgb(97.648621%,87.449646%,86.268616%);fill-opacity:1;"><g transform="translate(66.205839, 47.884826)"><path style="stroke:none;" d="M 4.695312 -3.476562 C 4.695312 -3.789062 4.574219 -4.085938 4.355469 -4.304688 C 4.136719 -4.53125 3.847656 -4.652344 3.535156 -4.652344 L 0.335938 -4.652344 C 0.257812 -4.652344 0.191406 -4.585938 0.191406 -4.511719 L 0.191406 -3.925781 C 0.191406 -3.847656 0.257812 -3.785156 0.335938 -3.785156 C 0.410156 -3.785156 0.476562 -3.847656 0.476562 -3.925781 L 0.476562 -4.367188 L 1.058594 -4.367188 L 1.058594 -1.972656 L 0.605469 -1.972656 C 0.527344 -1.972656 0.460938 -1.910156 0.460938 -1.832031 C 0.460938 -1.753906 0.527344 -1.691406 0.605469 -1.691406 L 1.058594 -1.691406 L 1.058594 -0.28125 L 0.578125 -0.28125 C 0.5 -0.28125 0.4375 -0.21875 0.4375 -0.140625 C 0.4375 -0.0625 0.5 0 0.578125 0 L 2.75 0 C 2.828125 0 2.890625 -0.0625 2.890625 -0.140625 C 2.890625 -0.21875 2.828125 -0.28125 2.75 -0.28125 L 2.28125 -0.28125 L 2.28125 -1.691406 L 2.640625 -1.691406 C 2.777344 -1.691406 3.175781 -1.683594 3.339844 -1.464844 C 3.445312 -1.328125 3.464844 -1.128906 3.464844 -0.867188 C 3.464844 -0.636719 3.476562 -0.449219 3.554688 -0.296875 C 3.65625 -0.101562 3.84375 0 4.105469 0 L 5.074219 0 C 5.152344 0 5.21875 -0.0625 5.21875 -0.140625 C 5.21875 -0.21875 5.152344 -0.28125 5.074219 -0.28125 C 4.875 -0.28125 4.8125 -0.359375 4.78125 -0.425781 C 4.722656 -0.535156 4.714844 -0.699219 4.714844 -0.867188 C 4.714844 -1.1875 4.683594 -1.4375 4.535156 -1.636719 C 4.453125 -1.746094 4.332031 -1.832031 4.183594 -1.882812 C 4.246094 -1.925781 4.304688 -1.972656 4.355469 -2.03125 C 4.574219 -2.25 4.695312 -2.539062 4.695312 -2.851562 Z M 2 -4.367188 L 2 -1.972656 L 1.34375 -1.972656 L 1.34375 -4.367188 Z M 2.28125 -1.972656 L 2.28125 -4.367188 L 2.59375 -4.367188 C 3.085938 -4.367188 3.480469 -3.96875 3.480469 -3.476562 L 3.480469 -2.851562 C 3.480469 -2.613281 3.390625 -2.398438 3.226562 -2.230469 C 3.050781 -2.0625 2.832031 -1.972656 2.59375 -1.972656 Z M 3.359375 -1.972656 L 3.417969 -2.03125 C 3.644531 -2.25 3.765625 -2.539062 3.765625 -2.851562 L 3.765625 -3.476562 C 3.765625 -3.835938 3.605469 -4.152344 3.355469 -4.367188 L 3.535156 -4.367188 C 3.769531 -4.367188 3.988281 -4.277344 4.15625 -4.105469 C 4.324219 -3.9375 4.414062 -3.714844 4.414062 -3.476562 L 4.414062 -2.851562 C 4.414062 -2.613281 4.324219 -2.390625 4.15625 -2.230469 C 3.996094 -2.0625 3.769531 -1.972656 3.535156 -1.972656 Z M 2 -1.691406 L 2 -0.28125 L 1.34375 -0.28125 L 1.34375 -1.691406 Z M 4.105469 -0.28125 C 3.90625 -0.28125 3.84375 -0.359375 3.808594 -0.425781 C 3.753906 -0.535156 3.746094 -0.699219 3.746094 -0.867188 C 3.746094 -1.1875 3.714844 -1.4375 3.566406 -1.636719 C 3.554688 -1.65625 3.539062 -1.671875 3.519531 -1.691406 L 3.609375 -1.691406 C 3.746094 -1.691406 4.144531 -1.683594 4.3125 -1.464844 C 4.414062 -1.328125 4.433594 -1.128906 4.433594 -0.867188 C 4.433594 -0.636719 4.445312 -0.449219 4.523438 -0.296875 C 4.53125 -0.296875 4.53125 -0.289062 4.535156 -0.28125 Z M 4.105469 -0.28125 "/></g></g><g style="fill:rgb(97.648621%,87.449646%,86.268616%);fill-opacity:1;"><g transform="translate(72.28784, 47.884826)"><path style="stroke:none;" d="M 3.976562 -4.640625 C 3.898438 -4.640625 3.835938 -4.574219 3.835938 -4.496094 C 3.835938 -4.421875 3.898438 -4.355469 3.976562 -4.355469 L 4.414062 -4.355469 L 3.128906 -2.757812 L 2.089844 -4.355469 L 2.632812 -4.355469 C 2.710938 -4.355469 2.777344 -4.421875 2.777344 -4.496094 C 2.777344 -4.574219 2.710938 -4.640625 2.632812 -4.640625 L 0.128906 -4.640625 C 0.0507812 -4.640625 -0.0117188 -4.574219 -0.0117188 -4.496094 C -0.0117188 -4.421875 0.0507812 -4.355469 0.128906 -4.355469 L 0.578125 -4.355469 L 2.0625 -2.054688 L 2.0625 -0.28125 L 1.585938 -0.28125 C 1.511719 -0.28125 1.445312 -0.21875 1.445312 -0.140625 C 1.445312 -0.0625 1.511719 0 1.585938 0 L 3.753906 0 C 3.828125 0 3.894531 -0.0625 3.894531 -0.140625 C 3.894531 -0.21875 3.828125 -0.28125 3.753906 -0.28125 L 3.289062 -0.28125 L 3.289062 -2.511719 L 4.78125 -4.355469 L 5.261719 -4.355469 C 5.339844 -4.355469 5.402344 -4.421875 5.402344 -4.496094 C 5.402344 -4.574219 5.339844 -4.640625 5.261719 -4.640625 Z M 3.007812 -0.28125 L 2.34375 -0.28125 L 2.34375 -2.09375 C 2.34375 -2.121094 2.339844 -2.152344 2.320312 -2.171875 L 0.914062 -4.355469 L 1.753906 -4.355469 L 3.007812 -2.421875 Z M 3.007812 -0.28125 "/></g></g></g></svg>